<svg width="1450" height="150" viewBox="0 0 1450 150" fill="none" xmlns="http://www.w3.org/2000/svg">
<g clip-path="url(#clip0)">
<rect width="24.2155" height="146.19" rx="12.1077" transform="matrix(0.661664 0.7498 -0.673611 0.739086 713.098 -52.6104)" fill="#3D5AF1"/>
<rect width="24.2155" height="146.19" rx="12.1077" transform="matrix(0.661664 0.7498 -0.673611 0.739086 615.194 -70.8052)" fill="#3D5AF1"/>
<path d="M622.268 -16.9759C626.772 -21.9181 634.01 -21.86 638.435 -16.8462V-16.8462C642.859 -11.8323 642.795 -3.76132 638.29 1.18089L556.127 91.3304C551.622 96.2726 544.384 96.2146 539.96 91.2007V91.2007C535.535 86.1868 535.6 78.1158 540.104 73.1736L622.268 -16.9759Z" fill="#3D5AF1"/>
<rect width="24.2155" height="146.19" rx="12.1077" transform="matrix(0.661664 0.7498 -0.673611 0.739086 1434.33 -70.8052)" fill="#3D5AF1"/>
<rect width="24.2155" height="146.19" rx="12.1077" transform="matrix(0.661664 0.7498 -0.673611 0.739086 1336.42 -89)" fill="#3D5AF1"/>
<rect width="24.2155" height="146.19" rx="12.1077" transform="matrix(0.661664 0.7498 -0.673611 0.739086 1351.65 -44.1194)" fill="#3D5AF1"/>
<rect width="24.2155" height="146.19" rx="12.1077" transform="matrix(0.661664 0.7498 -0.673611 0.739086 98.4751 -65.9531)" fill="#3D5AF1"/>
<rect width="24.2155" height="146.19" rx="12.1077" transform="matrix(0.661664 0.7498 -0.673611 0.739086 159.394 -65.9531)" fill="#3D5AF1"/>
<rect width="24.1498" height="145.779" rx="12.0749" transform="matrix(0.659346 0.751839 -0.671318 0.741169 245.864 101.242)" fill="#3D5AF1"/>
<rect width="24.1498" height="145.779" rx="12.0749" transform="matrix(0.659346 0.751839 -0.671318 0.741169 1387.48 91.5376)" fill="#3D5AF1"/>
<rect width="24.1498" height="145.779" rx="12.0749" transform="matrix(0.659346 0.751839 -0.671318 0.741169 1330.19 109.733)" fill="#3D5AF1"/>
<rect width="24.1498" height="145.779" rx="12.0749" transform="matrix(0.659346 0.751839 -0.671318 0.741169 1444.78 83.0469)" fill="#3D5AF1"/>
<rect width="24.1498" height="145.779" rx="12.0749" transform="matrix(0.659346 0.751839 -0.671318 0.741169 992.539 110.751)" fill="#3D5AF1"/>
<rect width="24.1498" height="145.779" rx="12.0749" transform="matrix(0.659346 0.751839 -0.671318 0.741169 951.864 101)" fill="#3D5AF1"/>
<path d="M908.758 86.9495C913.235 82.0068 920.428 82.0645 924.826 87.0784V87.0784C929.223 92.0922 929.158 100.164 924.681 105.106L843.029 195.254C838.552 200.197 831.359 200.139 826.961 195.125V195.125C822.564 190.111 822.629 182.04 827.106 177.097L908.758 86.9495Z" fill="#3D5AF1"/>
<rect width="24.1498" height="145.779" rx="12.0749" transform="matrix(0.659346 0.751839 -0.671318 0.741169 343.161 119.437)" fill="#3D5AF1"/>
<rect width="24.1498" height="145.779" rx="12.0749" transform="matrix(0.659346 0.751839 -0.671318 0.741169 322.62 83.0469)" fill="#3D5AF1"/>
</g>
<defs>
<clipPath id="clip0">
<rect width="1450" height="150" fill="white"/>
</clipPath>
</defs>
</svg>
