<svg width="415" height="60" viewBox="0 0 415 60" fill="none" xmlns="http://www.w3.org/2000/svg">
<g clip-path="url(#clip0)">
<rect width="6.779" height="40.9528" rx="3.3895" transform="matrix(0.677287 0.735719 -0.68905 0.724714 64.8074 46.9692)" fill="#3D5AF1"/>
<rect width="6.779" height="40.9528" rx="3.3895" transform="matrix(0.677287 0.735719 -0.68905 0.724714 201.342 -16.0042)" fill="#3D5AF1"/>
<rect width="6.779" height="40.9528" rx="3.3895" transform="matrix(0.677287 0.735719 -0.68905 0.724714 393.986 44.3037)" fill="#3D5AF1"/>
<rect width="6.779" height="40.9528" rx="3.3895" transform="matrix(0.677287 0.735719 -0.68905 0.724714 377.465 49.3016)" fill="#3D5AF1"/>
<rect width="6.779" height="40.9528" rx="3.3895" transform="matrix(0.677287 0.735719 -0.68905 0.724714 410.508 41.9713)" fill="#3D5AF1"/>
<rect width="6.779" height="40.9528" rx="3.3895" transform="matrix(0.677287 0.735719 -0.68905 0.724714 173.287 -21.0021)" fill="#3D5AF1"/>
<rect width="6.779" height="40.9528" rx="3.3895" transform="matrix(0.677287 0.735719 -0.68905 0.724714 177.65 -8.67395)" fill="#3D5AF1"/>
<rect width="6.779" height="40.9528" rx="3.3895" transform="matrix(0.677287 0.735719 -0.68905 0.724714 279.584 44.6369)" fill="#3D5AF1"/>
<rect width="6.779" height="40.9528" rx="3.3895" transform="matrix(0.677287 0.735719 -0.68905 0.724714 262.439 47.9688)" fill="#3D5AF1"/>
<path d="M255.428 38.0971C256.718 36.7404 258.791 36.7571 260.059 38.1344V38.1344C261.327 39.5116 261.309 41.7279 260.019 43.0845L236.472 67.8508C235.182 69.2074 233.108 69.1907 231.841 67.8135V67.8135C230.573 66.4362 230.591 64.22 231.88 62.8633L255.428 38.0971Z" fill="#3D5AF1"/>
<rect width="6.779" height="40.9528" rx="3.3895" transform="matrix(0.677287 0.735719 -0.68905 0.724714 408.014 -21.0021)" fill="#3D5AF1"/>
<rect width="6.779" height="40.9528" rx="3.3895" transform="matrix(0.677287 0.735719 -0.68905 0.724714 379.959 -26)" fill="#3D5AF1"/>
<rect width="6.779" height="40.9528" rx="3.3895" transform="matrix(0.677287 0.735719 -0.68905 0.724714 384.323 -13.6718)" fill="#3D5AF1"/>
<rect width="6.779" height="40.9528" rx="3.3895" transform="matrix(0.677287 0.735719 -0.68905 0.724714 92.8622 51.9671)" fill="#3D5AF1"/>
<rect width="6.779" height="40.9528" rx="3.3895" transform="matrix(0.677287 0.735719 -0.68905 0.724714 25.2185 -19.6693)" fill="#3D5AF1"/>
<rect width="6.779" height="40.9528" rx="3.3895" transform="matrix(0.677287 0.735719 -0.68905 0.724714 42.6749 -19.6693)" fill="#3D5AF1"/>
<rect width="6.779" height="40.9528" rx="3.3895" transform="matrix(0.677287 0.735719 -0.68905 0.724714 86.9397 41.9713)" fill="#3D5AF1"/>
</g>
<defs>
<clipPath id="clip0">
<rect width="415" height="60" fill="white"/>
</clipPath>
</defs>
</svg>
