<svg width="360" height="60" viewBox="0 0 360 60" fill="none" xmlns="http://www.w3.org/2000/svg">
<g clip-path="url(#clip0)">
<rect width="6.779" height="40.9528" rx="3.3895" transform="matrix(0.677287 0.735719 -0.68905 0.724714 36.8074 46.9692)" fill="#3D5AF1"/>
<rect width="6.779" height="40.9528" rx="3.3895" transform="matrix(0.677287 0.735719 -0.68905 0.724714 173.342 -16.0042)" fill="#3D5AF1"/>
<rect width="6.779" height="40.9528" rx="3.3895" transform="matrix(0.677287 0.735719 -0.68905 0.724714 337.74 47.3324)" fill="#3D5AF1"/>
<rect width="6.779" height="40.9528" rx="3.3895" transform="matrix(0.677287 0.735719 -0.68905 0.724714 321.219 52.3302)" fill="#3D5AF1"/>
<rect width="6.779" height="40.9528" rx="3.3895" transform="matrix(0.677287 0.735719 -0.68905 0.724714 354.261 45)" fill="#3D5AF1"/>
<rect width="6.779" height="40.9528" rx="3.3895" transform="matrix(0.677287 0.735719 -0.68905 0.724714 145.287 -21.0021)" fill="#3D5AF1"/>
<rect width="6.779" height="40.9528" rx="3.3895" transform="matrix(0.677287 0.735719 -0.68905 0.724714 149.65 -8.67395)" fill="#3D5AF1"/>
<rect width="6.779" height="40.9528" rx="3.3895" transform="matrix(0.677287 0.735719 -0.68905 0.724714 251.584 44.637)" fill="#3D5AF1"/>
<rect width="6.779" height="40.9528" rx="3.3895" transform="matrix(0.677287 0.735719 -0.68905 0.724714 234.439 47.9689)" fill="#3D5AF1"/>
<path d="M227.428 38.097C228.718 36.7404 230.791 36.7571 232.059 38.1343C233.327 39.5116 233.309 41.7278 232.019 43.0845L208.472 67.8507C207.182 69.2074 205.109 69.1907 203.841 67.8134C202.573 66.4362 202.591 64.2199 203.881 62.8633L227.428 38.097Z" fill="#3D5AF1"/>
<rect width="6.779" height="40.9528" rx="3.3895" transform="matrix(0.677287 0.735719 -0.68905 0.724714 368.274 -22.0021)" fill="#3D5AF1"/>
<rect width="6.779" height="40.9528" rx="3.3895" transform="matrix(0.677287 0.735719 -0.68905 0.724714 340.219 -27)" fill="#3D5AF1"/>
<rect width="6.779" height="40.9528" rx="3.3895" transform="matrix(0.677287 0.735719 -0.68905 0.724714 344.583 -14.6719)" fill="#3D5AF1"/>
<rect width="6.779" height="40.9528" rx="3.3895" transform="matrix(0.677287 0.735719 -0.68905 0.724714 64.8622 51.9672)" fill="#3D5AF1"/>
<rect width="6.779" height="40.9528" rx="3.3895" transform="matrix(0.677287 0.735719 -0.68905 0.724714 28.2185 -21)" fill="#3D5AF1"/>
<rect width="6.779" height="40.9528" rx="3.3895" transform="matrix(0.677287 0.735719 -0.68905 0.724714 45.6749 -21)" fill="#3D5AF1"/>
<rect width="6.779" height="40.9528" rx="3.3895" transform="matrix(0.677287 0.735719 -0.68905 0.724714 58.9396 41.9713)" fill="#3D5AF1"/>
</g>
<defs>
<clipPath id="clip0">
<rect width="360" height="60" fill="white"/>
</clipPath>
</defs>
</svg>
