<svg width="140" height="143" viewBox="0 0 140 143" fill="none" xmlns="http://www.w3.org/2000/svg">
<path fill-rule="evenodd" clip-rule="evenodd" d="M136.939 44.374C136.91 44.3109 135.964 41.3277 135.964 41.3277L133.656 38.0047L133.588 37.9063L132.905 44.1675C132.905 44.1675 132.666 44.4323 132.477 44.7604C132.129 44.907 131.605 45.0123 130.953 45.1434L130.952 45.1437C130.864 45.1614 130.775 45.1793 130.683 45.1979C129.473 45.446 129.802 46.2536 129.802 46.2536C129.802 46.2536 131.085 46.455 132.325 46.3784C132.64 46.3586 132.905 46.3135 133.126 46.2568C133.294 46.4245 133.421 46.607 133.54 46.7775C133.579 46.8342 133.617 46.8897 133.656 46.9427V46.9446L133.658 48.7558H136.813L136.775 45.6011C136.866 44.9549 136.939 44.374 136.939 44.374ZM129.472 136.098L130.327 138.324C130.5 138.274 130.823 138.216 131.211 138.158C131.367 137.795 131.574 137.352 131.713 137.199C131.894 137.002 132.433 137.008 133.01 137.031L132.714 136.075C131.975 136.093 130.551 136.128 129.472 136.098ZM122.088 61.8556C123.299 61.9155 124.529 61.8638 124.832 61.4477C124.834 61.4442 124.837 61.4414 124.839 61.4386C124.841 61.4357 124.843 61.4329 124.845 61.4294L125.109 63.6602C123.968 63.5704 120.503 63.3488 119.147 63.8267L119.094 61.6274L117.494 61.0033C117.494 61.0033 116.87 60.3508 116.769 59.1904L116.728 58.5061L116.698 58.0383C116.324 57.882 115.879 57.6638 115.715 57.5091C115.649 57.4476 115.777 57.2452 115.967 56.9448C116.148 56.6583 116.387 56.2822 116.567 55.8542L116.45 53.943C116.444 53.8664 116.44 53.7933 116.44 53.7217C116.589 53.7797 116.738 53.833 116.887 53.8797L116.993 54.8004L117.268 56.8446C117.268 56.8446 117.484 56.8298 117.783 56.838C117.871 56.6432 118.033 56.5168 118.32 56.4934C119.035 56.4351 119.67 57.0262 119.739 57.8136C119.761 58.0749 119.713 58.3097 119.61 58.5061C119.564 58.5994 119.506 58.6842 119.434 58.7592C119.421 58.9124 119.41 59.0704 119.403 59.2286C119.364 60.0195 119.71 60.7435 120.283 61.2296C120.693 61.5776 121.22 61.8023 121.803 61.8389C121.898 61.8455 121.992 61.8506 122.088 61.8556ZM113.765 136.157L114.12 137.765C114.344 137.695 114.575 137.861 114.572 138.094C114.572 138.105 114.571 138.116 114.571 138.127L114.57 138.147C114.565 138.347 114.56 138.538 114.64 138.602C116.037 139.714 116.631 139.054 116.961 138.686C117.047 138.591 117.115 138.516 117.174 138.496C117.211 138.484 117.247 138.471 117.283 138.458C117.306 138.45 117.329 138.442 117.352 138.434L116.746 136.004C115.906 136.062 114.76 136.133 113.765 136.157ZM101.091 57.1075C101.148 57.0599 101.207 57.011 101.267 56.9612C102.129 56.2454 102.617 56.9612 102.617 56.9612C102.617 56.9612 102.211 57.7486 101.619 58.5061C101.532 58.6177 101.441 58.7293 101.346 58.8374C101.084 59.1353 100.832 59.3351 100.617 59.4666L100.608 59.483C100.42 59.8442 100.252 60.1676 100.312 60.404L100.323 60.4387L96.5379 61.7425L96.5123 61.7273C96.5048 61.7204 96.3319 61.6763 96.0445 61.6031C94.4575 61.1993 89.3836 59.9085 89.4516 59.047C89.4688 59.0089 89.3645 58.7908 89.2226 58.5061C89.1854 58.4324 89.1455 58.3542 89.1047 58.2735C88.8038 57.6815 88.4377 56.9612 88.5913 56.9379C90.0471 56.7147 97.6791 58.3179 97.6791 58.3179C97.6791 58.3179 99.1709 57.8719 100.162 57.8401C100.426 57.6635 100.731 57.4085 101.091 57.1075Z" fill="#FFBEA8"/>
<path fill-rule="evenodd" clip-rule="evenodd" d="M116.44 53.7217C116.295 53.665 116.151 53.6016 116.009 53.5317C115.713 53.387 115.431 53.2171 115.162 52.939C114.435 52.18 114.098 50.8914 114.538 50.4605C114.942 50.0617 115.072 49.5716 115.291 48.7422C115.308 48.6776 115.325 48.6111 115.343 48.5424C115.397 48.3429 115.498 48.1663 115.634 48.0131C115.858 47.76 116.177 47.5687 116.531 47.4322C117.109 47.2074 117.788 47.1274 118.315 47.1658C119.181 47.227 119.974 47.7603 120.586 48.1717C121.137 48.5421 121.54 48.8135 121.718 48.5525C122.195 47.8483 123.275 47.9867 123.79 48.1663C124.757 48.5008 127.513 50.0557 128.132 50.5569C128.638 50.9664 128.64 52.6645 128.238 54.0729V54.0779C128.173 54.9902 127.564 56.7065 126.633 58.5061C126.122 59.4949 125.514 60.5087 124.845 61.4294C124.842 61.4341 124.839 61.4382 124.836 61.4427L124.832 61.4477C124.529 61.8638 123.299 61.9155 122.088 61.8556C121.992 61.8505 121.898 61.8455 121.803 61.8389C121.22 61.8023 120.693 61.5776 120.283 61.2296C119.71 60.7435 119.364 60.0195 119.403 59.2286C119.41 59.0703 119.42 58.9124 119.434 58.7592C119.506 58.6842 119.564 58.5994 119.61 58.5061C119.713 58.3097 119.761 58.0749 119.739 57.8136C119.67 57.0261 119.035 56.4351 118.32 56.4934C118.033 56.5168 117.87 56.6432 117.783 56.838C117.484 56.8298 117.268 56.8446 117.268 56.8446L116.993 54.8004L116.887 53.8797C116.738 53.833 116.589 53.7797 116.44 53.7217ZM139.399 64.163L139.227 60.3107L139.114 58.3844C139.078 57.7436 139.039 57.1009 138.991 56.4584L138.85 54.534L138.691 52.6077L138.672 52.4136L138.646 52.133C138.539 51.0074 138.431 49.8808 138.286 48.7555H136.813H133.658H133.656H132.276C132.13 49.8808 132.023 51.0074 131.915 52.133C131.9 52.2913 131.885 52.4495 131.87 52.6077L131.711 54.534L131.571 56.4584C131.541 56.8566 131.515 57.2563 131.49 57.6547L131.489 57.6787L131.448 58.3844L131.335 60.3107L131.227 62.7313L131.063 62.9308C130.794 63.2555 130.514 63.5723 130.237 63.8856L130.237 63.8859L130.237 63.8862H130.236V63.8865L130.216 63.9099C129.646 64.5457 129.046 65.1335 128.474 65.6461L128.446 65.6704L128.409 65.7025L128.407 65.7038C128.358 65.7457 128.31 65.7876 128.262 65.8276C127.429 65.6577 126.611 65.5112 125.976 65.403C125.897 65.7176 125.686 65.9925 125.393 66.1523C125.206 66.2538 124.988 66.3087 124.75 66.2989L120.368 65.8494L118.82 65.6896C118.572 65.6644 118.38 65.5131 118.288 65.3183C117.458 65.7145 116.712 66.0524 116.024 66.3487C115.417 66.3953 114.979 66.4934 114.586 66.5867C114.187 66.6831 113.845 66.7932 113.522 66.9013C112.88 67.121 112.324 67.3508 111.788 67.5907C110.726 68.0635 109.77 68.5744 108.834 69.092C107.901 69.615 107.007 70.1594 106.122 70.7104C106.083 70.7359 106.043 70.7611 106.004 70.7866H106.004C105.925 70.8374 105.847 70.8878 105.768 70.9402C105.602 70.5405 105.433 70.1442 105.258 69.748L104.569 68.1499L103.86 66.5602C103.419 65.5594 102.956 64.5665 102.493 63.5735L102.408 63.3904C101.908 62.3401 101.405 61.2895 100.87 60.2508L100.323 60.4387L96.5379 61.7424L95.2036 62.2017C95.4569 63.3371 95.7458 64.4609 96.0367 65.5846C96.3344 66.7049 96.6321 67.8236 96.9538 68.9373L97.431 70.607L97.9273 72.2701C98.1414 73.0064 98.3701 73.7371 98.5985 74.4678V74.4681H98.5988V74.4684V74.4687V74.469L98.6027 74.4807C98.6775 74.7206 98.7527 74.9601 98.8272 75.2003C99.0118 76.0426 99.3934 76.8798 99.9441 77.5906C100.516 78.3333 101.256 78.9391 102.093 79.3637C102.932 79.7899 103.872 80.0345 104.836 80.0629C105.797 80.0944 106.776 79.9046 107.635 79.5317L107.923 79.4069L108.305 79.1607L108.88 78.7925L109.48 78.4149C109.882 78.1634 110.286 77.9153 110.692 77.6707C111.176 77.3709 111.663 77.0781 112.149 76.7934C112.16 78.5766 112.185 80.432 112.209 82.1688V82.172V82.1723V82.1726V82.1729V82.1732V82.1736V82.1742V82.1745V82.1751V82.1758V82.1764C112.247 85.0332 112.281 87.5691 112.242 88.9359C112.226 89.4721 112.967 94.7227 112.967 94.7227C112.967 94.7227 113.144 94.746 113.462 94.7841C115.74 95.0656 125.26 96.161 128.666 95.2803C128.729 95.2636 128.791 95.2472 128.851 95.2289H128.852C129.422 95.0571 128.966 93.3379 128.656 92.1688L128.655 92.1685L128.655 92.1672L128.655 92.1656L128.654 92.1647C128.571 91.8498 128.498 91.5749 128.459 91.3817C128.459 91.3817 128.46 91.3798 128.459 91.3782C128.437 91.2701 128.426 91.1885 128.43 91.1383C128.441 90.9952 128.687 90.7872 128.955 90.5602C129.27 90.2942 129.615 90.0026 129.646 89.7602C129.845 88.2361 130.621 85.3279 131.475 82.1285C132.409 78.6274 133.437 74.7773 133.903 72.0106C134.002 71.9255 134.099 71.8407 134.197 71.754C135.133 70.9285 135.925 70.0579 136.667 69.1737C137.039 68.7327 137.386 68.2797 137.725 67.8204C137.894 67.5907 138.06 67.3574 138.223 67.1194L138.469 66.755L138.739 66.3386L139.449 65.2499L139.399 64.163ZM106.634 73.0392C106.692 73.1757 106.733 73.3141 106.752 73.4455L106.634 73.0392ZM134.21 137.861C134.243 137.563 134.217 137.064 133.673 137.054C133.52 137.052 133.361 137.045 133.201 137.038C133.137 137.036 133.073 137.033 133.01 137.031C132.433 137.007 131.894 137.002 131.713 137.199C131.574 137.352 131.367 137.795 131.211 138.158C130.823 138.216 130.5 138.274 130.327 138.324C130.255 138.344 130.209 138.362 130.194 138.379C130.099 138.481 130.003 138.669 129.911 138.91H129.909C129.208 139.043 127.294 139.453 126.686 140.042C125.94 140.768 126.49 142.333 126.49 142.333H129.092H129.102C129.161 142.333 129.373 142.339 129.682 142.349L129.692 142.349H129.693H129.695H129.696C131.114 142.394 134.513 142.5 134.534 142.333C134.621 141.59 134.927 138.577 134.339 137.885C134.327 137.871 134.282 137.865 134.21 137.861ZM120.784 115.472C120.784 115.657 120.808 115.843 120.858 116.027L120.844 114.966C120.804 115.129 120.784 115.299 120.784 115.472ZM119.562 115.814C119.696 116.255 119.939 116.754 120.38 117.205C120.751 117.585 121.164 117.829 121.568 117.989L121.737 118.399L121.727 118.396L121.712 118.392C121.706 118.391 121.701 118.389 121.695 118.387C121.689 118.386 121.684 118.384 121.679 118.382C121.162 118.217 120.613 117.928 120.132 117.435C119.646 116.937 119.379 116.388 119.234 115.907C119.09 115.424 119.066 115.009 119.066 114.771C119.066 114.696 119.068 114.638 119.07 114.603C119.075 114.512 119.155 114.442 119.249 114.445C119.343 114.45 119.417 114.528 119.412 114.62C119.41 114.651 119.409 114.703 119.409 114.771C119.409 114.986 119.431 115.371 119.562 115.814ZM106.82 113.616C106.673 113.892 106.598 114.219 106.598 114.551C106.596 115.081 106.791 115.635 107.237 116.018L107.054 115.336L107.084 115.251C106.986 115.031 106.94 114.79 106.94 114.551C106.938 114.269 107.005 113.992 107.125 113.767C107.275 113.483 107.511 113.276 107.802 113.133L107.946 112.712C107.881 112.734 107.816 112.758 107.752 112.785C107.364 112.955 107.026 113.225 106.82 113.616ZM105.376 114.893C105.509 115.336 105.752 115.833 106.194 116.284C106.612 116.713 107.08 116.969 107.532 117.122L107.633 117.503C107.587 117.491 107.539 117.477 107.491 117.462C106.976 117.297 106.427 117.007 105.946 116.514C105.46 116.018 105.193 115.469 105.048 114.986C104.902 114.505 104.878 114.089 104.878 113.851C104.878 113.785 104.881 113.734 104.883 113.698V113.698L104.883 113.684C104.888 113.591 104.969 113.521 105.063 113.526C105.157 113.531 105.229 113.609 105.226 113.701L105.225 113.714C105.223 113.746 105.221 113.791 105.221 113.851C105.221 114.067 105.243 114.452 105.376 114.893ZM31.5452 114.475L31.174 113.586L31.0438 113.273L24.5497 97.6892V97.6876C23.3142 90.5801 21.9659 88.3682 21.4531 87.5272C21.3575 87.3699 21.2908 87.2608 21.2597 87.1764C21.145 86.8252 21.0851 86.6355 21.0851 86.6355H21.0835C20.8833 87.421 20.743 87.9338 20.7035 87.9937C17.8671 89.8318 13.7919 88.9195 10.7125 87.5877C10.6885 87.363 10.661 87.1398 10.6302 86.9151C10.1171 87.729 9.31465 89.1641 8.97937 90.6523C8.69527 91.9125 8.66968 93.3111 8.78241 94.6795C8.78662 94.7306 8.79115 94.7816 8.79569 94.833C8.80055 94.8885 8.80541 94.9443 8.80994 95.0007L10.6781 116.449L10.6985 137.372H11.051H13.4686H13.9561L15.9577 117.858L15.9937 117.497L16.088 116.587L16.1152 116.235L16.2331 114.735L16.2623 114.377L17.2137 102.276L26.5597 115.49L26.8163 136.455H26.9397H29.6871H29.783L31.8053 117.05L31.8394 116.716L31.8941 116.19L31.9301 115.857L31.9676 115.49L31.7146 114.883L31.5452 114.475ZM21.7473 58.9972C21.9439 58.9972 21.9439 59.6897 21.7473 59.6897C21.7405 59.6897 21.7317 59.6897 21.7249 59.6882C21.5386 59.6781 21.3912 59.5283 21.3912 59.3433C21.3912 59.152 21.5487 58.9988 21.7456 58.9972H21.7473ZM21.0971 61.8887C21.0611 61.9171 21.0543 61.9688 21.0835 62.0053C21.0851 62.0088 21.1399 62.0769 21.2341 62.1503C21.3264 62.2219 21.4599 62.3016 21.6242 62.3183H21.631C21.6737 62.3183 21.7129 62.2868 21.7165 62.2433C21.7197 62.2067 21.7009 62.1752 21.6685 62.1601C21.6601 62.155 21.6497 62.1535 21.6394 62.1519C21.5266 62.1418 21.4188 62.0819 21.3401 62.0205C21.3025 61.9905 21.2698 61.9587 21.2493 61.9372L21.2254 61.9104L21.2186 61.9038V61.9022C21.1894 61.8673 21.1347 61.8606 21.0971 61.8887ZM22.168 58.2498C22.1768 58.2996 22.1629 58.3479 22.1337 58.3844C22.1081 58.4144 22.0722 58.4361 22.0313 58.4443L21.7984 58.4859L21.7592 58.4929L21.6805 58.5061L21.1603 58.5975C21.0815 58.6111 21.0064 58.5726 20.9772 58.5061C20.9688 58.4929 20.9636 58.4777 20.962 58.4629C20.9448 58.3728 21.0064 58.2864 21.0987 58.2697L21.9695 58.1165C22.0398 58.1032 22.1081 58.1348 22.1441 58.1896C22.1561 58.2079 22.1648 58.2281 22.168 58.2498ZM21.0647 140.527C18.6199 140.019 14.8337 138.597 13.6824 138.154C13.5985 138.123 13.5129 138.128 13.441 138.161C13.3351 138.208 13.258 138.311 13.2616 138.439L13.2619 138.463C13.2655 138.629 13.2687 138.786 13.2016 138.84C12.0277 139.77 11.5304 139.213 11.2547 138.905C11.1831 138.825 11.1265 138.762 11.0769 138.745C11.051 138.737 11.027 138.729 11.0014 138.719C10.808 138.65 10.613 138.582 10.5259 138.685C10.0296 139.263 10.3788 142.328 10.5583 142.333H20.5412C21.2681 142.356 21.8036 141.497 21.4787 140.865C21.3912 140.695 21.2613 140.568 21.0647 140.527ZM17.7304 68.611C17.7404 70.3624 15.1006 71.3862 12.6218 71.4694C10.4368 71.541 8.37877 70.8803 8.36841 69.3385C8.36841 69.3385 8.3804 69.2386 8.40437 69.0539C8.43871 68.7759 8.49669 68.3049 8.57379 67.7004C8.87991 65.2316 9.47532 60.5421 9.8877 57.6638C10.0468 56.565 10.177 55.7293 10.2573 55.3813C10.6302 53.7466 12.5379 53.4437 12.5379 53.4437C13.5917 50.6184 20.3102 51.9735 21.8772 53.6848C22.8506 54.7503 22.4385 57.5904 22.4385 57.5904L22.168 57.499L21.7249 57.3474L21.2905 56.1672C21.2905 56.1672 21.376 57.2058 20.3135 57.6954C20.1544 57.7685 19.9869 58.0616 19.814 58.5061C19.4239 59.5198 19.0151 61.3213 18.6627 63.1259C18.9792 63.269 19.3847 63.437 19.7832 63.5653C19.9918 63.6318 20.7822 63.9297 20.8318 63.9499C20.8302 63.9499 20.8286 63.9499 20.8269 63.9499C20.8253 63.9502 20.8234 63.9505 20.8218 63.9515C20.6352 63.9666 20.3702 64.0013 20.0913 64.0397C20.0906 64.0397 20.0903 64.0397 20.0893 64.0397C20.0877 64.0397 20.0851 64.0401 20.0825 64.0413L20.0543 64.0451C19.6332 64.1006 19.1855 64.1595 18.9312 64.163H18.9124L18.5668 63.6252C18.3702 64.6673 18.1955 65.6861 18.0569 66.5268L18.0391 66.6378C18.0132 66.7988 17.9882 66.9527 17.9646 67.098C17.8175 68.0134 17.7304 68.611 17.7304 68.611Z" fill="#1F1C2E"/>
<path fill-rule="evenodd" clip-rule="evenodd" d="M7.66872 48.0633C7.66872 48.0633 7.69464 48.0497 7.74258 48.0283C8.02312 47.9 9.03932 47.4921 9.51811 48.0633C9.88093 48.4942 8.88189 49.355 8.12904 49.9095L7.74258 51.7072L6.64927 56.7932C6.1666 56.1738 5.35414 55.8293 4.5106 55.9658C4.07943 56.0358 3.69815 56.2205 3.39526 56.4834L4.99489 49.0471C4.81283 48.1704 4.88119 46.832 4.92816 45.9166C4.95116 45.464 4.96898 45.115 4.94857 44.9767C4.89059 44.5754 6.8647 42.2731 7.74258 42.0319C7.79215 42.0168 7.83814 42.0102 7.87929 42.0102C8.53268 42.0102 7.95638 46.177 7.74258 47.5955C7.69788 47.8883 7.66872 48.0633 7.66872 48.0633ZM22.1269 58.5061C22.1169 58.6993 22.103 58.914 22.0861 59.1419L22.6248 60.3706C22.7003 60.5437 22.6456 60.7451 22.4914 60.8602C22.2999 60.9982 22.0346 61.1013 21.8603 61.1514C21.8072 61.4994 21.7437 61.8405 21.6686 62.1601C21.6601 62.1554 21.6498 62.1535 21.6394 62.1519C21.5267 62.1418 21.4188 62.0819 21.3401 62.0205C21.3025 61.9905 21.2698 61.9587 21.2494 61.9373L21.2254 61.9105L21.2186 61.9038V61.9023C21.1894 61.8673 21.1347 61.8607 21.0971 61.8887C21.0612 61.9171 21.0544 61.9688 21.0835 62.0053C21.0851 62.0088 21.1399 62.0769 21.2341 62.1503C21.3265 62.2219 21.4599 62.3016 21.6242 62.3184H21.631C21.4392 63.0793 21.1826 63.6984 20.8338 63.9499H20.8318C20.7822 63.9297 19.9918 63.6319 19.7832 63.5654C19.3844 63.4371 18.9792 63.2691 18.6627 63.1256C19.0151 61.3213 19.424 59.5199 19.814 58.5061C19.987 58.0617 20.1545 57.7685 20.3135 57.6954C21.376 57.2058 21.2905 56.1672 21.2905 56.1672L21.7249 57.3474L22.1681 57.499C22.1665 57.5939 22.1613 57.8435 22.1441 58.1896C22.1082 58.1348 22.0398 58.1033 21.9698 58.1165L21.0987 58.2697C21.0064 58.2864 20.9449 58.3728 20.962 58.4629C20.9637 58.4777 20.9688 58.4929 20.9773 58.5061C21.0064 58.5726 21.0819 58.6111 21.1603 58.5975L21.6806 58.5061L21.7593 58.4929L21.7985 58.4863L22.0314 58.4446C22.0722 58.4361 22.1082 58.4144 22.1341 58.3844L22.1334 58.3939C22.1318 58.4295 22.1302 58.468 22.1269 58.5061ZM21.7249 59.6882C21.7317 59.6898 21.7405 59.6898 21.7473 59.6898C21.9439 59.6898 21.9439 58.9972 21.7473 58.9972H21.7457C21.5487 58.9988 21.3913 59.152 21.3913 59.3433C21.3913 59.5284 21.5387 59.6781 21.7249 59.6882ZM45.2594 58.3047C45.2594 58.3047 45.9436 57.0495 45.2594 56.5051C44.6452 56.0156 43.1839 58.0733 42.8862 58.5061C42.8522 58.5559 42.8334 58.5843 42.8334 58.5843C42.8334 58.5843 42.8334 58.6026 42.835 58.6376L33.0885 66.0174C33.7847 66.0058 34.4776 66.3122 34.9224 66.9013C35.2424 67.3275 35.3791 67.8287 35.3467 68.3166L44.9513 61.0433L44.9102 60.9916C45.7424 61.0559 46.7408 61.0074 47.4732 60.9721C47.9348 60.9497 48.2905 60.9323 48.4327 60.9516C48.804 61.0033 50.7748 59.4366 51.3327 58.5061C51.4269 58.3498 51.4817 58.2098 51.4817 58.0998C51.4817 57.3341 45.2594 58.3047 45.2594 58.3047ZM27.1186 138.745V138.745L27.1536 138.757L27.1775 138.765C27.2268 138.782 27.2831 138.845 27.3544 138.924V138.925H27.3547C27.6307 139.233 28.1286 139.79 29.3023 138.855C29.368 138.803 29.3642 138.651 29.3603 138.488C29.3596 138.469 29.3593 138.449 29.3586 138.429C29.357 138.318 29.4186 138.224 29.5077 138.178L29.6871 136.455H26.9398V138.687C26.9974 138.703 27.0583 138.724 27.1182 138.745H27.1186ZM20.8218 63.9515C20.6352 63.9663 20.3702 64.0013 20.0913 64.0398C20.4479 64.0057 20.7233 63.9657 20.8066 63.9537L20.8218 63.9515ZM18.0569 66.5268C18.1956 65.6861 18.3702 64.6674 18.5668 63.6252L18.9125 64.163H18.9312L18.4777 65.4797L18.2247 66.5902L18.1875 66.5757C18.1437 66.559 18.101 66.5423 18.0569 66.5268ZM11.0014 138.719C11.0274 138.729 11.051 138.737 11.0769 138.745C11.1265 138.762 11.1832 138.825 11.2548 138.905C11.5304 139.213 12.028 139.77 13.2017 138.84C13.2687 138.786 13.2655 138.629 13.2619 138.463L13.2616 138.439C13.258 138.311 13.3351 138.208 13.4411 138.161L13.4686 137.372H11.051L11.0014 138.719Z" fill="#D1874B"/>
<path fill-rule="evenodd" clip-rule="evenodd" d="M133.827 17.2983C133.827 19.4327 132.048 21.1642 129.855 21.1642H56.6569V25.5123H128.715C131.444 25.5123 133.656 27.6649 133.656 30.3203V38.0046L133.588 37.9063L132.905 44.1675C132.905 44.1675 132.666 44.4322 132.477 44.7601C132.129 44.907 131.606 45.0122 130.953 45.1434H130.953C130.865 45.161 130.775 45.1793 130.683 45.1979C129.473 45.446 129.802 46.2536 129.802 46.2536C129.802 46.2536 131.085 46.455 132.325 46.3784C132.64 46.3582 132.905 46.3135 133.126 46.2567C133.294 46.4244 133.421 46.6066 133.54 46.7775C133.579 46.8342 133.617 46.8897 133.656 46.9426V46.9442V48.7558H132.276C132.13 49.8801 132.023 51.0061 131.916 52.1308V52.1321C131.9 52.2906 131.885 52.4492 131.87 52.6077L131.711 54.534L131.571 56.4584C131.54 56.8647 131.514 57.2726 131.489 57.6786C130.698 58.2013 129.744 58.5061 128.715 58.5061H126.633C127.564 56.7065 128.173 54.9901 128.238 54.0779V54.0728C128.64 52.6645 128.638 50.9664 128.132 50.5569C127.513 50.0557 124.756 48.5008 123.79 48.1663C123.275 47.9866 122.195 47.8483 121.718 48.5524C121.54 48.8134 121.137 48.542 120.586 48.1717C119.974 47.7603 119.181 47.227 118.315 47.1658C117.788 47.1274 117.109 47.2074 116.531 47.4322V44.825H24.8678V48.0131H115.634C115.498 48.1663 115.396 48.3428 115.343 48.5424C115.326 48.6082 115.309 48.6719 115.293 48.7337L115.291 48.7422C115.072 49.5715 114.942 50.0617 114.538 50.4605C114.098 50.8914 114.435 52.18 115.162 52.939C115.431 53.217 115.713 53.3869 116.009 53.5316C116.151 53.6016 116.295 53.665 116.44 53.7217C116.44 53.7933 116.443 53.8664 116.45 53.943L116.567 55.8541C116.386 56.2822 116.148 56.6583 115.967 56.9448C115.777 57.2452 115.649 57.4476 115.715 57.5087C115.879 57.6638 116.324 57.8816 116.698 58.0383L116.728 58.5061H101.619C102.211 57.7486 102.617 56.9612 102.617 56.9612C102.617 56.9612 102.129 56.2453 101.267 56.9612C101.241 56.9826 101.215 57.0041 101.19 57.0252C101.157 57.0529 101.124 57.0803 101.091 57.1078H101.091V57.1081C100.731 57.4088 100.426 57.6635 100.161 57.84C99.1708 57.8719 97.6791 58.3179 97.6791 58.3179C97.6791 58.3179 90.047 56.7147 88.5912 56.9379C88.4376 56.9612 88.8037 57.6815 89.1046 58.2734L89.1053 58.2747L89.1056 58.2756C89.1464 58.3554 89.1856 58.4329 89.2225 58.5061H86.0405V65.1817V65.3482H80.1139V92.2041C80.1139 93.2711 79.2244 94.1367 78.1278 94.1367H63.2725C62.1743 94.1367 61.2844 93.2711 61.2844 92.2041V62.9109C61.2844 61.8423 62.1743 60.9764 63.2725 60.9764H74.0167V58.5061H51.3326C51.4269 58.3497 51.4816 58.2098 51.4816 58.0998C51.4816 57.3341 45.2593 58.3046 45.2593 58.3046C45.2593 58.3046 45.9435 57.0494 45.2593 56.5051C44.6451 56.0155 43.1838 58.0733 42.8864 58.5061H22.1269C22.1301 58.4679 22.1317 58.4295 22.1334 58.3939L22.134 58.3844C22.1628 58.3478 22.1768 58.2996 22.168 58.2498C22.1648 58.228 22.156 58.2082 22.1441 58.1899C22.1612 57.8435 22.1664 57.5938 22.168 57.499L22.4385 57.5904C22.4385 57.5904 22.8506 54.7503 21.8771 53.6848C20.3102 51.9735 13.5916 50.6184 12.5379 53.4437C12.5379 53.4437 10.6302 53.7466 10.2573 55.3813C10.177 55.7293 10.0467 56.565 9.88768 57.6638C8.59256 56.7979 7.74221 55.3448 7.74221 53.7V51.7071L8.129 49.9091C8.88184 49.355 9.88088 48.4941 9.51807 48.0629C9.03928 47.4921 8.02307 47.8999 7.74221 48.0282V47.5951C7.95634 46.177 8.53264 42.0101 7.87924 42.0101C7.8381 42.0101 7.7921 42.0167 7.74221 42.0316V30.3203C7.74221 27.6649 9.95442 25.5123 12.6833 25.5123H37.6564V21.1642H11.5456C9.35059 21.1642 7.57311 19.4327 7.57117 17.2983V11.9929C7.57311 9.85857 9.35059 8.1274 11.5456 8.1274H37.6564V2.59376C37.6564 1.48009 38.5851 0.57605 39.7299 0.57605H54.585C55.7295 0.57605 56.6569 1.48009 56.6569 2.59376V8.1274H129.855C132.048 8.1274 133.827 9.85857 133.827 11.9929V17.2983ZM79.411 93.4526C79.7395 93.133 79.9429 92.6917 79.9429 92.2041V65.3482H74.0167V61.1429H63.2725C62.7697 61.1429 62.3162 61.3411 61.9877 61.6608C61.6592 61.9804 61.4558 62.4217 61.4558 62.9109V92.2041C61.4558 92.6917 61.6592 93.133 61.9877 93.4526C62.3162 93.7723 62.7697 93.9702 63.2725 93.9702H78.1278C78.629 93.9702 79.0825 93.7723 79.411 93.4526ZM85.6981 58.5061H74.3588V60.9764H78.1278C79.2244 60.9764 80.1139 61.8423 80.1139 62.9109V65.0153H85.6981V58.5061ZM78.1278 61.1429H74.3588V65.0153H79.9429V62.9109C79.9429 62.4217 79.7395 61.9804 79.411 61.6608C79.0825 61.3411 78.629 61.1429 78.1278 61.1429ZM132.421 9.49418C131.764 8.85492 130.857 8.46026 129.855 8.46026H56.6569V20.831H129.855C130.857 20.831 131.764 20.4366 132.421 19.7974C133.08 19.1562 133.485 18.2739 133.485 17.2983V11.9929C133.485 11.0173 133.08 10.135 132.421 9.49418ZM56.3145 8.46026H37.9985V20.831H56.3145V8.46026ZM38.5064 1.4035C38.1919 1.708 37.9985 2.12755 37.9985 2.59376V8.1274H56.3145V2.59376C56.3145 2.12755 56.1214 1.708 55.8082 1.4035C55.4953 1.0971 55.0641 0.908919 54.585 0.908919H39.7299C39.2508 0.908919 38.8197 1.0971 38.5064 1.4035ZM8.97773 19.7974C9.63469 20.4366 10.5414 20.831 11.5456 20.831H37.6564V8.46026H11.5456C10.5414 8.46026 9.63469 8.85492 8.97773 9.49418C8.32077 10.135 7.91358 11.0173 7.91358 11.9929V17.2983C7.91358 18.2739 8.32077 19.1562 8.97773 19.7974ZM116.531 39.1949V36.0052H24.8678V39.1949H116.531ZM37.9985 25.5123H56.3145V21.1642H37.9985V25.5123ZM123.225 12.1928H128.269V17.0988H123.225V12.1928ZM30.1866 12.1928H25.1431V17.0988H30.1866V12.1928ZM15.8379 12.1928H20.8817V17.0988H15.8379V12.1928Z" fill="#22D1EE"/>
<path fill-rule="evenodd" clip-rule="evenodd" d="M32.7445 71.065C33.771 70.4059 34.4212 69.9429 34.4432 69.9265C34.9959 69.5318 35.3072 68.9342 35.3467 68.3166C35.3791 67.8287 35.2424 67.3275 34.9223 66.9013C34.4776 66.3122 33.7846 66.0058 33.0885 66.0174C32.6453 66.026 32.197 66.1624 31.8138 66.437V66.4354L31.7966 66.4487C31.6032 66.5852 29.737 67.8921 27.494 69.1255C26.6352 69.5999 25.7198 70.0629 24.837 70.4425C24.2623 69.9558 23.7207 69.7253 23.1936 69.5009C22.6209 69.2573 22.0657 69.0212 21.5043 68.4714C20.8541 67.8353 19.5043 67.0778 18.2247 66.5902L18.1874 66.5757C18.144 66.559 18.1009 66.5426 18.0569 66.5268L18.0394 66.6368L18.0391 66.6378C18.0131 66.7989 17.9882 66.9527 17.9646 67.098C17.8175 68.0134 17.7304 68.6111 17.7304 68.6111C17.7404 70.3624 15.1006 71.3862 12.6218 71.4695C10.4368 71.541 8.37876 70.8803 8.36839 69.3386C8.36839 69.3386 8.38039 69.2387 8.40436 69.0539C8.4387 68.7759 8.49668 68.305 8.57377 67.7004C8.07069 67.4227 7.5404 67.0879 7.03052 66.6999C6.51739 66.3087 6.02467 65.8643 5.59351 65.3681C5.59869 65.2584 5.61229 65.1153 5.63464 64.952C5.69263 64.5258 5.80568 63.9682 5.94757 63.3737C6.09561 62.7461 6.27346 62.0782 6.44482 61.4361C6.51739 61.1637 6.58866 60.8964 6.65604 60.6386C6.76877 60.2026 6.87146 59.7963 6.95212 59.4152C6.99294 59.2236 7.02889 59.0404 7.05643 58.8507C7.08364 58.6593 7.10599 58.468 7.10761 58.2199C7.10761 58.0882 7.10243 57.9419 7.07003 57.7452C7.00848 57.3874 6.85948 57.0643 6.64924 56.7932C6.16656 56.1738 5.35411 55.8293 4.51056 55.9658C4.07939 56.0358 3.69811 56.2205 3.39523 56.4834C2.90251 56.913 2.61485 57.5472 2.65437 58.2231V58.2246C2.64595 58.288 2.62522 58.4062 2.59444 58.5477C2.52253 58.8872 2.39781 59.3768 2.25074 59.9278C2.21089 60.0781 2.16975 60.2332 2.12731 60.3918V60.3921C1.93651 61.1086 1.7253 61.901 1.54745 62.6847C1.43796 63.1641 1.34045 63.6401 1.26692 64.1063C1.19338 64.576 1.14188 65.0302 1.14026 65.5065C1.14188 65.8028 1.15905 66.1073 1.23421 66.4569C1.27211 66.6334 1.32491 66.82 1.41043 67.0246C1.49628 67.2279 1.61419 67.4476 1.7888 67.6705C2.18563 68.1751 2.60804 68.6328 3.04439 69.0489C3.48074 69.4653 3.9307 69.8398 4.3771 70.1761C5.29256 70.862 6.20446 71.3947 7.01367 71.8026C7.2414 73.2325 7.76684 75.0689 8.35933 77.139C9.20417 80.0913 10.1848 83.5183 10.6302 86.9151C10.6609 87.1399 10.6885 87.363 10.7125 87.5878C13.7919 88.9196 17.8671 89.8318 20.7035 87.9938C20.743 87.9339 20.8833 87.4213 21.0835 86.6355V86.6336C21.8943 83.4342 23.6857 75.6962 23.7029 75.4699C23.7045 75.4532 23.7061 75.4368 23.7061 75.4201C24.3255 75.2669 24.9397 75.0686 25.5471 74.8407C26.654 74.4262 27.7438 73.9152 28.7736 73.3806C30.3168 72.5784 31.7179 71.7241 32.7445 71.065ZM118.82 65.6896L120.368 65.8494L124.75 66.2989C124.988 66.3087 125.207 66.2539 125.393 66.1524C125.686 65.9925 125.898 65.718 125.977 65.4031C126.04 65.1651 126.024 64.9038 125.911 64.6526L125.48 63.6918C125.48 63.6918 125.343 63.6785 125.109 63.6603C123.968 63.5704 120.504 63.3488 119.147 63.8267C118.935 63.9017 118.774 63.9931 118.681 64.1063L118.315 64.7222C118.199 64.917 118.201 65.1386 118.288 65.3183C118.38 65.5131 118.572 65.6647 118.82 65.6896ZM128.459 91.3783C128.437 91.2702 128.426 91.1885 128.43 91.1387L128.437 91.2008L128.459 91.3783ZM131.788 132.851L132.56 132.801L133.265 135.836C133.254 135.964 133.112 136.065 132.934 136.07C132.906 136.071 132.876 136.072 132.844 136.072L132.798 136.074L132.714 136.075C131.975 136.093 130.551 136.128 129.472 136.098C128.698 136.077 128.101 136.022 128.06 135.902C127.935 135.541 127.123 133.155 127.123 133.155L127.81 133.11L121.737 118.399L121.568 117.989L120.861 116.276L120.858 116.027L120.844 114.966L120.693 102.808L112.764 116.258L116.161 132.329L117.29 132.28L117.944 135.91C117.944 135.91 117.455 135.952 116.746 136.004C115.906 136.062 114.76 136.133 113.765 136.157C112.616 136.183 111.667 136.149 111.619 135.962C111.496 135.478 110.76 132.569 110.76 132.569L111.645 132.529L107.633 117.503L107.532 117.122L107.238 116.018L107.054 115.336L107.084 115.251L107.802 113.133L107.946 112.712L113.462 96.4659V94.7845C115.741 95.0657 125.26 96.1611 128.666 95.2804C128.729 95.264 128.791 95.2473 128.851 95.229H128.852L129.195 99.1894C129.268 100.03 129.246 100.877 129.128 101.715L127.155 115.777L131.788 132.851ZM117.236 138.475L117.283 138.458C117.306 138.45 117.329 138.442 117.352 138.434C117.552 138.366 117.74 138.318 117.831 138.426C118.421 139.118 117.995 142.328 117.781 142.333H105.878C105.012 142.358 104.377 141.74 104.765 140.986C104.87 140.786 105.027 140.633 105.26 140.587C108.196 139.984 112.755 138.285 114.096 137.772C114.103 137.769 114.108 137.768 114.114 137.766L114.12 137.765C114.344 137.695 114.575 137.862 114.572 138.094C114.571 138.112 114.571 138.13 114.571 138.147C114.565 138.347 114.56 138.538 114.64 138.602C116.037 139.714 116.631 139.054 116.961 138.686C117.047 138.591 117.115 138.516 117.174 138.496C117.195 138.489 117.215 138.482 117.236 138.475ZM32.1458 115.221C32.2074 115.289 32.3149 115.298 32.3868 115.237C32.4587 115.178 32.4672 115.073 32.4056 115.003C32.1387 114.705 31.8326 114.53 31.5452 114.475L31.7146 114.883C31.8549 114.953 32.0072 115.063 32.1458 115.221ZM34.611 115.053C34.5031 115.412 34.3049 115.822 33.9437 116.192C33.5844 116.559 33.174 116.776 32.7908 116.897C32.4176 117.017 32.0671 117.049 31.8053 117.051L31.8394 116.716C32.0723 116.713 32.3697 116.681 32.6845 116.581C33.0234 116.473 33.3791 116.285 33.6956 115.962C34.0121 115.637 34.1866 115.279 34.2825 114.96C34.3784 114.642 34.3953 114.364 34.3953 114.209C34.3953 114.16 34.3937 114.124 34.392 114.1C34.3885 114.009 34.4604 113.931 34.5546 113.926C34.6502 113.922 34.7289 113.992 34.7341 114.086C34.7357 114.111 34.7377 114.154 34.7377 114.209C34.7377 114.385 34.7189 114.695 34.611 115.053ZM31.9644 115.858C32.2449 115.858 32.5342 115.772 32.7445 115.601C33.0098 115.386 33.1364 115.053 33.1364 114.723C33.1364 114.522 33.0885 114.325 33.0062 114.169C32.8883 113.949 32.7001 113.796 32.4639 113.691C32.2278 113.588 31.9437 113.54 31.6615 113.54C31.4957 113.54 31.3279 113.556 31.174 113.586L31.0441 113.273C31.2391 113.23 31.4493 113.206 31.6615 113.206C31.9832 113.206 32.3117 113.26 32.6042 113.388C32.8951 113.514 33.1533 113.719 33.3091 114.017C33.4202 114.227 33.4785 114.472 33.4785 114.723C33.4785 115.131 33.3227 115.564 32.9634 115.857C32.6777 116.088 32.3133 116.192 31.9644 116.192C31.9404 116.192 31.9181 116.192 31.8941 116.19L31.9301 115.857C31.9421 115.858 31.9524 115.858 31.9644 115.858ZM37.1705 140.52C34.7069 140.014 30.8831 138.589 29.7574 138.16C29.6702 138.126 29.5795 138.136 29.5076 138.178C29.4185 138.225 29.357 138.318 29.3586 138.429C29.3589 138.44 29.3593 138.45 29.3596 138.461L29.3602 138.489C29.3641 138.651 29.368 138.803 29.3022 138.855C28.1286 139.79 27.6307 139.233 27.3547 138.925C27.2834 138.845 27.2271 138.782 27.1775 138.766C27.159 138.759 27.1406 138.753 27.1221 138.747L27.1185 138.745L27.1179 138.745C27.058 138.725 26.9974 138.703 26.9397 138.687C26.8063 138.647 26.688 138.632 26.6249 138.707C26.1305 139.288 26.4878 142.328 26.6676 142.333H36.6522C37.3791 142.355 37.9114 141.487 37.5845 140.856C37.497 140.687 37.3655 140.56 37.1705 140.52ZM16.2331 114.735L16.2622 114.377C16.5771 114.517 16.88 114.728 17.1246 114.993C17.4223 115.316 17.6361 115.722 17.6361 116.17C17.6361 116.238 17.6309 116.306 17.6209 116.376C17.5729 116.697 17.4171 116.961 17.2169 117.167C17.0167 117.374 16.7721 117.525 16.5327 117.64C16.329 117.738 16.1272 117.808 15.9577 117.858L15.9937 117.497C16.016 117.49 16.04 117.482 16.064 117.473C16.3737 117.364 16.7258 117.189 16.9688 116.939C17.1298 116.771 17.2444 116.573 17.282 116.328C17.2904 116.275 17.294 116.222 17.294 116.17C17.294 115.828 17.1281 115.494 16.8696 115.214C16.6902 115.02 16.466 114.853 16.2331 114.735Z" fill="#3D5AF1"/>
<path opacity="0.3" fill-rule="evenodd" clip-rule="evenodd" d="M39.7296 0.57605H54.585C55.7295 0.57605 56.6566 1.48009 56.6586 2.59376V31.8866C56.6566 33.0022 55.7295 33.9043 54.585 33.9043H39.7296C38.5835 33.9027 37.6564 33.0003 37.6564 31.8866V2.59376C37.658 1.4782 38.5851 0.57605 39.7296 0.57605ZM55.8098 33.0769C56.1231 32.7724 56.3161 32.3528 56.3161 31.8866V2.59376C56.3161 2.12913 56.1231 1.708 55.8098 1.4035C55.4969 1.09868 55.0657 0.91081 54.5866 0.91081H39.7316C39.2541 0.91081 38.8213 1.09868 38.5083 1.4035C38.1951 1.708 38.0017 2.12755 38.0017 2.59376V31.8866C38.0017 32.3512 38.1951 32.7724 38.5083 33.0769C38.8213 33.3817 39.2524 33.5699 39.7316 33.5699H54.5866C55.0641 33.5699 55.4969 33.3817 55.8098 33.0769ZM74.0167 65.3482V53.6483H86.0405V65.1818V65.3482H74.0167ZM85.6981 53.9815H74.3588V65.0153H85.6981V53.9815Z" fill="black"/>
</svg>
