<svg width="24" height="24" viewBox="0 0 24 24" fill="none" xmlns="http://www.w3.org/2000/svg"><rect width="24" height="24" fill="none" rx="0" ry="0"></rect><path fill-rule="evenodd" clip-rule="evenodd" d="M4.10693 3.50049H8.10889C8.43994 3.50049 8.7085 3.76904 8.7085 4.1001V8.10107C8.7085 8.43213 8.43994 8.70068 8.10889 8.70068H4.10693C3.77588 8.70068 3.50732 8.43213 3.50732 8.10107V4.1001C3.50732 3.76904 3.77588 3.50049 4.10693 3.50049ZM4.70654 7.50146H7.50928V4.69971H4.70654V7.50146ZM4.10693 16.2983H8.10889C8.43994 16.2983 8.7085 16.5669 8.7085 16.8979V20.8999C8.7085 21.231 8.43994 21.4995 8.10889 21.4995H4.10693C3.77588 21.4995 3.50732 21.231 3.50732 20.8999V16.8979C3.50732 16.5669 3.77588 16.2983 4.10693 16.2983ZM4.70654 20.3003H7.50928V17.4976H4.70654V20.3003ZM19.8931 3.50049H15.8911C15.5601 3.50049 15.2915 3.76904 15.2915 4.1001V8.10107C15.2915 8.43213 15.5601 8.70068 15.8911 8.70068H19.8931C20.2241 8.70068 20.4927 8.43213 20.4927 8.10107V4.1001C20.4927 3.76904 20.2241 3.50049 19.8931 3.50049ZM19.2935 7.50146H16.4907V4.69971H19.2935V7.50146ZM15.8911 16.2983H19.8931C20.2241 16.2983 20.4927 16.5669 20.4927 16.8979V20.8999C20.4927 21.231 20.2241 21.4995 19.8931 21.4995H15.8911C15.5601 21.4995 15.2915 21.231 15.2915 20.8999V16.8979C15.2915 16.5669 15.5601 16.2983 15.8911 16.2983ZM16.4907 20.3003H19.2935V17.4976H16.4907V20.3003Z
" fill="#ffffff"></path></svg>